<svg id="Capa_1" enable-background="new 0 0 512 512" height="512" viewBox="0 0 512 512" width="512" xmlns="http://www.w3.org/2000/svg"><g><g><circle cx="256" cy="256" fill="#9dc6fb" r="248.5"/></g><g><path d="m411.465 62.148c34.183 42.568 54.648 96.623 54.648 155.465 0 137.243-111.257 248.5-248.5 248.5-58.843 0-112.897-20.465-155.465-54.648 45.545 56.717 115.452 93.035 193.852 93.035 137.243 0 248.5-111.257 248.5-248.5 0-78.4-36.318-148.307-93.035-193.852z" fill="#80b4fb"/></g><g><path d="m353.326 204.093-54.318 19.77-69.15-38.375-40.096 14.232 48.706 46.178-56.427 20.538-23.767-14.761-54.634 19.885 67.544 52.338 199.341-72.554c13.048-4.749 19.776-19.177 15.027-32.225-4.75-13.047-19.178-19.775-32.226-15.026z" fill="#f9f6f9"/></g><g><path d="m229.903 46.515-14.588-35.681c-117.885 19.418-207.815 121.781-207.815 245.166 0 22 2.873 43.327 8.239 63.64h13.62c7.652 0 14.648-4.324 18.07-11.168l20.568-41.135c1.403-2.805 2.133-5.899 2.133-9.035v-59.452c0-10.088 7.442-18.631 17.436-20.013l68.053-9.412c5.993-.829 11.299-4.3 14.46-9.459l58.352-95.252c3.36-5.485 3.907-12.244 1.472-18.199z" fill="#b3e59f"/></g><g><path d="m344.894 23.891v83.92c0 14.221 7.476 27.395 19.684 34.688l42.979 25.676c9.642 5.76 16.451 15.273 18.795 26.258l8.351 39.144c2.609 12.232-.593 24.983-8.672 34.531l-44.301 52.356c-6.173 7.296-9.561 16.543-9.561 26.1v19.345c0 13.947 7.193 26.908 19.027 34.287l44.316 27.633c42.731-44.631 68.988-105.162 68.988-171.829 0-105.917-66.272-196.341-159.606-232.109z" fill="#b3e59f"/></g><g><path d="m411.485 62.173c34.171 42.565 54.628 96.609 54.628 155.441 0 71.135-29.897 135.282-77.802 180.582.931.7 1.885 1.377 2.884 2l44.316 27.633c42.732-44.631 68.989-105.162 68.989-171.829 0-78.39-36.308-148.286-93.015-193.827z" fill="#95d6a4"/></g><g><path d="m256 504.5c34.506 0 67.366-7.038 97.231-19.749l-27.004-18.729c-5.579-3.869-9.712-9.485-11.748-15.963l-3.864-12.295c-2.613-8.314-8.648-15.118-16.59-18.705l-7.992-3.609c-6.972-3.149-12.511-8.796-15.524-15.827l-5.553-12.957c-4.82-11.246-15.878-18.538-28.113-18.538-11.225 0-21.548 6.149-26.894 16.019l-11.831 21.842c-3.698 6.828-9.855 11.993-17.222 14.449l-21.575 7.192c-6.101 2.034-11.407 5.939-15.161 11.161l-20.027 27.853c38.219 23.977 83.419 37.856 131.867 37.856z" fill="#b3e59f"/></g><g><path d="m314.479 450.06-.983-3.129c-29.505 12.351-61.895 19.183-95.882 19.183-29.073 0-56.973-5.01-82.903-14.185l-10.58 14.714c38.221 23.978 83.421 37.857 131.869 37.857 34.506 0 67.366-7.038 97.231-19.749l-27.004-18.729c-5.579-3.869-9.712-9.485-11.748-15.962z" fill="#95d6a4"/></g><g><path d="m391.509 241.514c3.685-7.902 4.071-16.766 1.09-24.959-2.982-8.193-8.977-14.735-16.878-18.419-7.902-3.684-16.766-4.072-24.96-1.09l-51.104 18.601-66.159-36.715c-1.882-1.045-4.122-1.23-6.148-.51l-40.097 14.232c-2.459.873-4.287 2.96-4.828 5.513s.283 5.203 2.177 6.998l39.906 37.835-41.606 15.144-20.671-12.837c-1.956-1.215-4.36-1.462-6.522-.677l-54.634 19.885c-2.566.935-4.423 3.19-4.845 5.889s.657 5.414 2.816 7.087l67.544 52.338c1.334 1.034 2.955 1.571 4.595 1.571.862 0 1.73-.149 2.564-.452l109.356-39.803c3.892-1.417 5.899-5.721 4.482-9.613s-5.721-5.899-9.613-4.482l-105.468 38.388-53.527-41.477 38.434-13.989 20.671 12.837c1.957 1.215 4.362 1.463 6.522.677l56.427-20.538c2.441-.889 4.249-2.978 4.777-5.522.529-2.544-.297-5.18-2.183-6.968l-39.827-37.76 25.377-9.008 66.191 36.733c1.899 1.054 4.161 1.232 6.205.49l54.317-19.77c9.14-3.33 19.284 1.403 22.611 10.544s-1.402 19.285-10.544 22.612l-56.949 20.728c-3.892 1.417-5.899 5.721-4.482 9.613 1.416 3.893 5.719 5.9 9.613 4.483l56.949-20.728c8.194-2.985 14.736-8.979 18.421-16.881z"/><path d="m437.02 74.98c-48.352-48.351-112.64-74.98-181.02-74.98-39.318 0-77.043 8.68-112.125 25.798-3.723 1.816-5.268 6.307-3.451 10.029s6.306 5.268 10.029 3.451c19.28-9.407 39.415-16.086 60.199-20.032l12.309 30.106c1.525 3.729 1.179 8.008-.926 11.443l-58.352 95.251c-1.996 3.257-5.311 5.425-9.093 5.948l-68.053 9.412c-13.63 1.885-23.908 13.682-23.908 27.442v59.452c0 1.961-.464 3.926-1.341 5.681l-20.567 41.135c-2.166 4.332-6.52 7.022-11.362 7.022h-7.742c-4.316-18.018-6.617-36.813-6.617-56.138 0-80.026 39.601-154.652 105.931-199.623 3.429-2.324 4.323-6.988 1.999-10.416-2.324-3.429-6.989-4.324-10.417-2-70.452 47.767-112.513 127.033-112.513 212.039 0 68.38 26.629 132.667 74.98 181.019 48.353 48.353 112.64 74.981 181.02 74.981 44.629 0 88.57-11.659 127.075-33.717 3.594-2.059 4.838-6.642 2.779-10.236-2.06-3.595-6.642-4.839-10.236-2.78-7.005 4.013-14.204 7.656-21.56 10.929l-23.556-16.337c-4.19-2.906-7.34-7.185-8.867-12.048l-3.864-12.296c-3.251-10.34-10.78-18.83-20.659-23.291l-7.992-3.609c-5.275-2.383-9.438-6.626-11.718-11.946l-5.553-12.958c-6.011-14.023-19.751-23.083-35.007-23.083-13.992 0-26.824 7.643-33.489 19.946l-11.831 21.842c-2.802 5.173-7.419 9.046-13 10.906l-21.575 7.191c-7.646 2.549-14.173 7.354-18.878 13.898l-15.803 21.977c-45.457-30.435-80.034-75.907-96.546-129.248h3.639c10.561 0 20.055-5.868 24.778-15.314l20.567-41.136c1.914-3.827 2.925-8.111 2.925-12.389v-59.451c0-6.31 4.713-11.719 10.963-12.583l68.053-9.412c8.249-1.141 15.476-5.868 19.828-12.97l58.353-95.252c4.59-7.493 5.345-16.822 2.02-24.956l-10.962-26.812c9.913-1.227 19.955-1.865 30.116-1.865 28.553 0 55.956 5.004 81.395 14.159v78.652c0 16.768 8.942 32.526 23.337 41.126l42.979 25.676c7.824 4.674 13.403 12.468 15.306 21.383l8.351 39.145c2.109 9.889-.53 20.401-7.063 28.121l-44.301 52.356c-7.31 8.639-11.335 19.629-11.335 30.945v19.345c0 16.647 8.434 31.844 22.559 40.651l36.342 22.66c-6.18 5.959-12.699 11.644-19.574 17.002-3.268 2.546-3.853 7.258-1.307 10.526 1.479 1.898 3.688 2.891 5.921 2.891 1.611 0 3.235-.517 4.604-1.584 30.071-23.431 54.945-53.789 71.933-87.792 17.818-35.667 26.853-74.111 26.853-114.262 0-68.38-26.629-132.667-74.98-181.02zm-286.774 368.189c2.853-3.967 6.81-6.88 11.444-8.425l21.575-7.191c9.207-3.069 16.823-9.458 21.445-17.992l11.831-21.842c4.04-7.458 11.818-12.091 20.3-12.091 9.247 0 17.576 5.493 21.22 13.992l5.553 12.958c3.763 8.778 10.627 15.776 19.331 19.708l7.992 3.609c5.988 2.704 10.553 7.85 12.522 14.118l3.864 12.295c2.521 8.023 7.717 15.083 14.629 19.877l15.422 10.696c-25.969 9.294-53.527 14.119-81.374 14.119-44.07 0-85.409-11.901-120.989-32.642zm284.046-24.941-39.127-24.397c-9.702-6.05-15.495-16.488-15.495-27.923v-19.345c0-7.773 2.766-15.322 7.786-21.255l44.301-52.356c9.509-11.238 13.353-26.542 10.281-40.94l-8.351-39.145c-2.77-12.979-10.892-24.326-22.283-31.131l-42.979-25.676c-9.888-5.907-16.03-16.732-16.03-28.25v-72.668c85.04 37.26 144.605 122.227 144.605 220.858 0 60.92-22.469 118.191-62.708 162.228z"/><path d="m347.344 348.935c0-4.142-3.357-7.5-7.5-7.5h-15.152c-4.143 0-7.5 3.358-7.5 7.5s3.357 7.5 7.5 7.5h15.152c4.142 0 7.5-3.358 7.5-7.5z"/><path d="m304.488 373.76c-4.143 0-7.5 3.358-7.5 7.5s3.357 7.5 7.5 7.5h15.152c4.143 0 7.5-3.358 7.5-7.5s-3.357-7.5-7.5-7.5z"/></g></g></svg>